<svg width="112" height="108" viewBox="0 0 112 108" fill="none" xmlns="http://www.w3.org/2000/svg">
<ellipse cx="5.22631" cy="19" rx="5.18248" ry="5" fill="#EE5514" fill-opacity="0.1"/>
<ellipse cx="63.2701" cy="19" rx="5.18248" ry="5" fill="#EE5514" fill-opacity="0.1"/>
<ellipse cx="34.2482" cy="19" rx="5.18248" ry="5" fill="#EE5514" fill-opacity="0.1"/>
<ellipse cx="92.292" cy="19" rx="5.18248" ry="5" fill="#EE5514" fill-opacity="0.1"/>
<ellipse cx="19.7372" cy="19" rx="5.18248" ry="5" fill="#EE5514" fill-opacity="0.1"/>
<ellipse cx="77.781" cy="19" rx="5.18248" ry="5" fill="#EE5514" fill-opacity="0.1"/>
<ellipse cx="48.7591" cy="19" rx="5.18248" ry="5" fill="#EE5514" fill-opacity="0.1"/>
<ellipse cx="106.803" cy="19" rx="5.18248" ry="5" fill="#EE5514" fill-opacity="0.1"/>
<ellipse cx="5.22631" cy="47" rx="5.18248" ry="5" fill="#EE5514" fill-opacity="0.1"/>
<ellipse cx="63.2701" cy="47" rx="5.18248" ry="5" fill="#EE5514" fill-opacity="0.1"/>
<ellipse cx="34.2482" cy="47" rx="5.18248" ry="5" fill="#EE5514" fill-opacity="0.1"/>
<ellipse cx="92.292" cy="47" rx="5.18248" ry="5" fill="#EE5514" fill-opacity="0.1"/>
<ellipse cx="19.7372" cy="47" rx="5.18248" ry="5" fill="#EE5514" fill-opacity="0.1"/>
<ellipse cx="77.781" cy="47" rx="5.18248" ry="5" fill="#EE5514" fill-opacity="0.1"/>
<ellipse cx="48.7591" cy="47" rx="5.18248" ry="5" fill="#EE5514" fill-opacity="0.1"/>
<ellipse cx="106.803" cy="47" rx="5.18248" ry="5" fill="#EE5514" fill-opacity="0.1"/>
<ellipse cx="5.22631" cy="75" rx="5.18248" ry="5" fill="#EE5514" fill-opacity="0.1"/>
<ellipse cx="63.2701" cy="75" rx="5.18248" ry="5" fill="#EE5514" fill-opacity="0.1"/>
<ellipse cx="34.2482" cy="75" rx="5.18248" ry="5" fill="#EE5514" fill-opacity="0.1"/>
<ellipse cx="92.292" cy="75" rx="5.18248" ry="5" fill="#EE5514" fill-opacity="0.1"/>
<ellipse cx="19.7372" cy="75" rx="5.18248" ry="5" fill="#EE5514" fill-opacity="0.1"/>
<ellipse cx="77.781" cy="75" rx="5.18248" ry="5" fill="#EE5514" fill-opacity="0.1"/>
<ellipse cx="48.7591" cy="75" rx="5.18248" ry="5" fill="#EE5514" fill-opacity="0.1"/>
<ellipse cx="106.803" cy="75" rx="5.18248" ry="5" fill="#EE5514" fill-opacity="0.1"/>
<ellipse cx="5.22631" cy="103" rx="5.18248" ry="5" fill="#EE5514" fill-opacity="0.1"/>
<ellipse cx="63.2701" cy="103" rx="5.18248" ry="5" fill="#EE5514" fill-opacity="0.1"/>
<ellipse cx="34.2482" cy="103" rx="5.18248" ry="5" fill="#EE5514" fill-opacity="0.1"/>
<ellipse cx="92.292" cy="103" rx="5.18248" ry="5" fill="#EE5514" fill-opacity="0.1"/>
<ellipse cx="19.7372" cy="103" rx="5.18248" ry="5" fill="#EE5514" fill-opacity="0.1"/>
<ellipse cx="77.781" cy="103" rx="5.18248" ry="5" fill="#EE5514" fill-opacity="0.1"/>
<ellipse cx="48.7591" cy="103" rx="5.18248" ry="5" fill="#EE5514" fill-opacity="0.1"/>
<ellipse cx="106.803" cy="103" rx="5.18248" ry="5" fill="#EE5514" fill-opacity="0.1"/>
<ellipse cx="5.22631" cy="5" rx="5.18248" ry="5" fill="#EE5514" fill-opacity="0.1"/>
<ellipse cx="63.2701" cy="5" rx="5.18248" ry="5" fill="#EE5514" fill-opacity="0.1"/>
<ellipse cx="34.2482" cy="5" rx="5.18248" ry="5" fill="#EE5514" fill-opacity="0.1"/>
<ellipse cx="92.292" cy="5" rx="5.18248" ry="5" fill="#EE5514" fill-opacity="0.1"/>
<ellipse cx="19.7372" cy="5" rx="5.18248" ry="5" fill="#EE5514" fill-opacity="0.1"/>
<ellipse cx="77.781" cy="5" rx="5.18248" ry="5" fill="#EE5514" fill-opacity="0.1"/>
<ellipse cx="48.7591" cy="5" rx="5.18248" ry="5" fill="#EE5514" fill-opacity="0.1"/>
<ellipse cx="106.803" cy="5" rx="5.18248" ry="5" fill="#EE5514" fill-opacity="0.1"/>
<ellipse cx="5.22631" cy="33" rx="5.18248" ry="5" fill="#EE5514" fill-opacity="0.1"/>
<ellipse cx="63.2701" cy="33" rx="5.18248" ry="5" fill="#EE5514" fill-opacity="0.1"/>
<ellipse cx="34.2482" cy="33" rx="5.18248" ry="5" fill="#EE5514" fill-opacity="0.1"/>
<ellipse cx="92.292" cy="33" rx="5.18248" ry="5" fill="#EE5514" fill-opacity="0.1"/>
<ellipse cx="19.7372" cy="33" rx="5.18248" ry="5" fill="#EE5514" fill-opacity="0.1"/>
<ellipse cx="77.781" cy="33" rx="5.18248" ry="5" fill="#EE5514" fill-opacity="0.1"/>
<ellipse cx="48.7591" cy="33" rx="5.18248" ry="5" fill="#EE5514" fill-opacity="0.1"/>
<ellipse cx="106.803" cy="33" rx="5.18248" ry="5" fill="#EE5514" fill-opacity="0.1"/>
<ellipse cx="5.22631" cy="61" rx="5.18248" ry="5" fill="#EE5514" fill-opacity="0.1"/>
<ellipse cx="63.2701" cy="61" rx="5.18248" ry="5" fill="#EE5514" fill-opacity="0.1"/>
<ellipse cx="34.2482" cy="61" rx="5.18248" ry="5" fill="#EE5514" fill-opacity="0.1"/>
<ellipse cx="92.292" cy="61" rx="5.18248" ry="5" fill="#EE5514" fill-opacity="0.1"/>
<ellipse cx="19.7372" cy="61" rx="5.18248" ry="5" fill="#EE5514" fill-opacity="0.1"/>
<ellipse cx="77.781" cy="61" rx="5.18248" ry="5" fill="#EE5514" fill-opacity="0.1"/>
<ellipse cx="48.7591" cy="61" rx="5.18248" ry="5" fill="#EE5514" fill-opacity="0.1"/>
<ellipse cx="106.803" cy="61" rx="5.18248" ry="5" fill="#EE5514" fill-opacity="0.1"/>
<ellipse cx="5.22631" cy="89" rx="5.18248" ry="5" fill="#EE5514" fill-opacity="0.1"/>
<ellipse cx="63.2701" cy="89" rx="5.18248" ry="5" fill="#EE5514" fill-opacity="0.1"/>
<ellipse cx="34.2482" cy="89" rx="5.18248" ry="5" fill="#EE5514" fill-opacity="0.1"/>
<ellipse cx="92.292" cy="89" rx="5.18248" ry="5" fill="#EE5514" fill-opacity="0.1"/>
<ellipse cx="19.7372" cy="89" rx="5.18248" ry="5" fill="#EE5514" fill-opacity="0.1"/>
<ellipse cx="77.781" cy="89" rx="5.18248" ry="5" fill="#EE5514" fill-opacity="0.1"/>
<ellipse cx="48.7591" cy="89" rx="5.18248" ry="5" fill="#EE5514" fill-opacity="0.1"/>
<ellipse cx="106.803" cy="89" rx="5.18248" ry="5" fill="#EE5514" fill-opacity="0.1"/>
</svg>
